<?xml version="1.0" encoding="UTF-8"?> <svg xmlns="http://www.w3.org/2000/svg" width="252" height="50" viewBox="0 0 252 50" fill="none"><g clip-path="url(#clip0_8080_2281)"><path d="M208.54 28.8017C207.01 28.8017 205.59 28.2217 204.53 27.1717C203.44 26.0917 202.84 24.6117 202.84 22.9917C202.84 21.2517 203.42 19.7517 204.53 18.6517C205.6 17.5917 207.09 17.0117 208.74 17.0117C210.95 17.1017 212.8 17.8217 213.28 18.3117L213.34 18.3817L212.83 20.2417C212.81 20.3317 212.75 20.5517 212.54 20.5517C212.36 20.5517 212.27 20.4017 211.94 19.6217C211.71 18.8517 210.73 17.9417 208.74 17.8617C207.06 17.8617 205.05 18.7517 205.05 23.0217C205.05 26.6717 207.13 27.9717 208.9 27.9717C210.93 27.9717 212.22 26.4117 212.81 25.4717C212.91 25.2617 213.03 25.1617 213.17 25.1617C213.41 25.1617 213.49 25.5117 213.49 25.6117C213.49 25.7417 213.43 25.8517 213.39 25.9317C212.16 27.9017 210.62 28.8217 208.56 28.8217L208.54 28.8017Z" fill="white"></path><path d="M219.921 28.8034C218.411 28.8034 216.911 28.2134 215.801 27.1834C214.611 26.0834 213.961 24.5634 213.961 22.9134C213.961 21.2634 214.611 19.7434 215.801 18.6434C216.911 17.6134 218.411 17.0234 219.921 17.0234C221.431 17.0234 222.931 17.6134 224.031 18.6434C225.221 19.7434 225.871 21.2634 225.871 22.9134C225.871 24.5634 225.221 26.0834 224.031 27.1834C222.921 28.2134 221.421 28.8034 219.921 28.8034ZM219.921 17.8534C218.891 17.8534 218.051 18.1734 217.431 18.7934C216.591 19.6434 216.151 21.0634 216.161 22.9034C216.151 24.7534 216.591 26.1734 217.431 27.0234C218.051 27.6434 218.881 27.9634 219.921 27.9634C220.961 27.9634 221.791 27.6434 222.411 27.0234C223.251 26.1734 223.691 24.7534 223.681 22.9134C223.691 21.0634 223.261 19.6434 222.411 18.7934C221.791 18.1734 220.961 17.8534 219.921 17.8534Z" fill="white"></path><path d="M242.269 28.5217C242.119 28.5217 241.909 28.5217 241.659 28.5017C241.339 28.4917 240.969 28.4717 240.649 28.4717C239.969 28.4717 239.569 28.4917 239.309 28.5017C239.189 28.5017 239.099 28.5117 239.019 28.5117C238.699 28.5117 238.699 28.3317 238.699 28.2717C238.699 28.0617 238.919 27.9617 239.129 27.8717C239.699 27.5817 239.759 26.8717 239.759 25.0617V18.9717C239.759 18.7517 239.649 18.6817 239.389 18.5517C239.329 18.5217 239.259 18.4917 239.199 18.4517H239.169C239.079 18.4017 238.939 18.3417 238.939 18.1817C238.939 17.9917 239.129 17.9417 239.199 17.9217L241.539 17.2617V24.6017C241.539 27.4817 242.069 27.8917 242.249 27.9517H242.299C242.459 28.0017 242.679 28.0517 242.679 28.2717C242.679 28.3417 242.639 28.5117 242.279 28.5117L242.269 28.5217Z" fill="white"></path><path d="M248.018 28.5234C247.878 28.5234 247.668 28.5234 247.438 28.5034C247.098 28.4934 246.678 28.4734 246.278 28.4734C245.878 28.4734 245.458 28.4834 245.118 28.5034C244.878 28.5034 244.678 28.5234 244.538 28.5234C244.348 28.5234 244.148 28.4334 244.148 28.2634C244.148 28.0734 244.378 27.9334 244.568 27.8534C245.118 27.5634 245.278 26.8934 245.278 25.0134V18.9734C245.278 18.5534 244.858 18.3634 244.728 18.3134C244.628 18.2834 244.328 18.1834 244.328 17.9934C244.328 17.8234 244.518 17.7734 244.698 17.7134L246.938 17.0734V19.5734C247.848 17.7934 249.028 17.0234 250.788 17.0234H251.008L250.198 19.5534L250.018 19.3934C250.018 19.3934 249.958 19.3434 249.928 19.3134C249.708 19.1134 249.468 18.8934 249.068 18.8934C247.698 18.8934 247.058 20.5534 247.058 24.1334V25.4034C247.058 27.1034 247.288 27.7934 247.878 27.8734C248.298 27.9134 248.348 28.1734 248.348 28.2834C248.348 28.5434 248.108 28.5434 248.028 28.5434L248.018 28.5234Z" fill="white"></path><path d="M231.112 32.6117C228.962 32.6117 225.762 31.7317 225.762 29.3217C225.762 28.6317 226.212 28.0317 227.052 27.5817C227.552 27.3117 228.072 27.1517 228.482 27.0517C228.032 26.8917 227.542 26.5717 227.542 25.9217C227.542 25.1017 228.382 24.6317 229.102 24.4517C227.792 23.9017 226.562 22.5617 226.562 21.0017C226.562 18.2417 229.422 17.0017 231.462 17.0017C232.122 17.0017 232.792 17.1217 233.372 17.2517C234.592 15.7217 236.302 15.4717 237.532 15.5417H237.742L237.042 17.7417L236.862 17.6017C236.312 17.1817 236.012 16.9517 235.332 16.9517C234.892 16.9517 234.442 17.1517 234.092 17.5017C235.822 18.2517 236.662 19.4017 236.662 21.0017C236.662 23.4217 234.432 24.7117 232.362 24.8917C231.762 24.9417 231.142 24.9417 230.542 24.9317C230.392 24.9317 230.242 24.9317 230.102 24.9317C229.512 24.9317 229.442 25.1217 229.442 25.3117C229.442 25.5617 230.032 25.9017 232.852 26.1017C233.022 26.1117 233.152 26.1217 233.242 26.1317C237.132 26.3617 237.552 28.1417 237.552 28.8917C237.552 30.2817 236.812 31.3017 235.342 31.9217C234.272 32.3717 232.852 32.5917 231.112 32.5917V32.6117ZM231.022 27.5017C227.972 27.5017 227.622 28.6717 227.622 29.5517C227.622 31.3617 230.362 31.7717 231.322 31.7717C234.082 31.7717 235.862 30.8817 235.862 29.5117C235.862 27.7617 232.832 27.5017 231.032 27.5017H231.022ZM231.582 17.7517C229.642 17.7517 228.572 18.9117 228.572 21.0317C228.572 23.1517 229.682 24.2117 231.702 24.2117C233.722 24.2117 234.672 23.1417 234.672 20.9317C234.672 18.7217 233.632 17.7517 231.582 17.7517Z" fill="white"></path><path d="M240.643 16.1012C240.123 16.1012 239.562 15.6613 239.562 14.9413C239.562 14.2213 240.123 13.7812 240.643 13.7812C241.163 13.7812 241.723 14.2213 241.723 14.9413C241.723 15.6613 241.163 16.1012 240.643 16.1012Z" fill="white"></path><path d="M182.397 29.1005C181.997 29.1005 181.627 29.0505 181.297 28.9505C180.967 28.8505 180.667 28.7205 180.397 28.5505C180.127 28.3805 179.887 28.1905 179.667 27.9705C179.447 27.7505 179.257 27.5105 179.087 27.2705V28.9205H177.797V16.7305H179.087V22.0205C179.267 21.7605 179.467 21.5205 179.677 21.2905C179.897 21.0605 180.137 20.8505 180.407 20.6805C180.677 20.5105 180.977 20.3705 181.297 20.2605C181.627 20.1505 181.987 20.1005 182.387 20.1005C182.897 20.1005 183.407 20.2005 183.897 20.4005C184.387 20.6005 184.837 20.8905 185.227 21.2805C185.617 21.6705 185.927 22.1305 186.167 22.6805C186.397 23.2305 186.517 23.8605 186.517 24.5805V24.6105C186.517 25.3105 186.397 25.9405 186.167 26.5005C185.937 27.0605 185.627 27.5305 185.237 27.9105C184.857 28.2905 184.417 28.5905 183.917 28.8005C183.417 29.0105 182.917 29.1105 182.387 29.1105L182.397 29.1005ZM182.157 27.9505C182.567 27.9505 182.957 27.8705 183.337 27.7205C183.707 27.5705 184.037 27.3505 184.307 27.0705C184.577 26.7905 184.797 26.4405 184.957 26.0305C185.117 25.6205 185.197 25.1505 185.197 24.6305V24.6005C185.197 24.0905 185.117 23.6305 184.957 23.2105C184.797 22.8005 184.577 22.4505 184.297 22.1605C184.017 21.8705 183.697 21.6505 183.327 21.4905C182.957 21.3305 182.567 21.2605 182.157 21.2605C181.747 21.2605 181.367 21.3405 180.997 21.5005C180.627 21.6605 180.287 21.8905 179.997 22.1805C179.697 22.4805 179.467 22.8305 179.297 23.2305C179.127 23.6405 179.037 24.0805 179.037 24.5705V24.6005C179.037 25.1005 179.127 25.5605 179.297 25.9705C179.467 26.3805 179.707 26.7305 179.997 27.0205C180.287 27.3105 180.627 27.5405 180.997 27.7005C181.367 27.8605 181.757 27.9405 182.157 27.9405V27.9505Z" fill="white"></path><path d="M190.225 31.6413C189.865 31.6413 189.545 31.6013 189.255 31.5312C188.965 31.4612 188.675 31.3512 188.385 31.2012L188.815 30.1813C189.025 30.2913 189.235 30.3712 189.445 30.4212C189.655 30.4712 189.895 30.5013 190.175 30.5013C190.565 30.5013 190.895 30.3813 191.165 30.1513C191.435 29.9213 191.695 29.4912 191.955 28.8812L188.035 20.2812H189.455L192.595 27.4813L195.365 20.2812H196.735L193.115 29.2012C192.745 30.0912 192.335 30.7212 191.885 31.0912C191.435 31.4612 190.885 31.6413 190.235 31.6413H190.225Z" fill="white"></path><path d="M161.609 0.929688H161.309V49.0697H161.609V0.929688Z" fill="white"></path><path d="M52.4666 20.0098C52.4666 22.6398 52.4666 24.7998 52.5866 25.9398C52.6666 26.7298 52.8266 27.3498 53.6466 27.4298C54.0366 27.4698 54.6266 27.5498 54.8666 27.5498C55.0266 27.5498 55.1066 27.6298 55.1066 27.7098C55.1066 27.8298 54.9866 27.9498 54.6766 27.9498C53.1866 27.9498 51.4566 27.8698 51.2966 27.8698C51.1766 27.8698 49.4466 27.9498 48.6266 27.9498C48.3166 27.9498 48.1966 27.9098 48.1966 27.7098C48.1966 27.6298 48.2366 27.5498 48.4366 27.5498C48.6766 27.5498 49.0266 27.5098 49.2666 27.4298C49.8166 27.3098 49.9366 26.7198 50.0566 25.9398C50.1766 24.7998 50.1766 22.6398 50.1766 20.0098V8.41984C48.8366 8.45984 47.4666 8.45984 46.1266 8.45984C44.4366 8.49984 43.7666 8.69984 43.3366 9.31984C43.0266 9.78984 42.9466 9.98984 42.8666 10.1798C42.7866 10.4198 42.7066 10.4598 42.5966 10.4598C42.5166 10.4598 42.4766 10.3798 42.4766 10.2198C42.4766 9.93984 43.0266 7.58984 43.0666 7.34984C43.1066 7.18984 43.2266 6.83984 43.3366 6.83984C43.5366 6.83984 43.8066 7.11985 44.5566 7.14985C45.3466 7.22985 46.4066 7.26984 46.7166 7.26984H57.0066C57.8666 7.26984 58.4966 7.22985 58.9666 7.14985C59.3566 7.10985 59.6366 7.02984 59.7566 7.02984C59.8766 7.02984 59.8766 7.18984 59.8766 7.33984C59.8766 8.16984 59.7966 10.0498 59.7966 10.3698C59.7966 10.6098 59.7166 10.7198 59.5966 10.7198C59.4766 10.7198 59.3966 10.6398 59.3566 10.2498C59.3566 10.1298 59.3166 10.0498 59.3166 9.93984C59.2366 9.10984 58.5666 8.48984 55.9366 8.44984C54.7966 8.40984 53.6166 8.40984 52.4766 8.40984V19.9998L52.4666 20.0098Z" fill="white"></path><path d="M63.3075 17.1011C63.3075 13.4911 63.3075 12.8211 63.2675 12.0711C63.2275 11.3211 63.0275 10.9311 62.1675 10.7711C62.0075 10.7311 61.7375 10.7311 61.4975 10.7311C61.2975 10.7311 61.1875 10.6911 61.1875 10.5711C61.1875 10.4511 61.2675 10.3711 61.4975 10.3711C62.6775 10.3711 64.3675 10.4511 64.4075 10.4511C64.6475 10.4511 66.5275 10.3711 67.2775 10.3711C68.8075 10.3711 70.4975 10.4911 71.7575 11.4311C72.2675 11.8211 73.4075 12.9211 73.4075 14.7711C73.4075 16.2611 72.6575 18.1911 70.4975 19.9611C72.4975 22.4411 74.1475 24.4411 75.5275 25.8911C76.8275 27.2311 77.6475 27.4611 78.4375 27.5811C78.6375 27.6211 79.2275 27.6211 79.2975 27.6211C79.5375 27.6211 79.6075 27.7011 79.6075 27.8211C79.6075 27.9411 79.4875 28.0211 79.0975 28.0211H77.1675C75.8675 28.0211 75.2775 27.9411 74.6875 27.7111C73.5475 27.2011 72.7275 25.9811 71.2675 24.1311C70.2075 22.8311 69.1075 21.3411 68.6375 20.7511C68.5175 20.6311 68.4775 20.5911 68.3275 20.5911L65.4975 20.5511C65.3775 20.5511 65.3775 20.5911 65.3775 20.6711V21.0611C65.3775 23.2611 65.3775 25.2611 65.4975 26.2511C65.5775 26.9211 65.6575 27.4711 66.5575 27.5511C66.8275 27.5911 67.1475 27.5911 67.3475 27.5911C67.5875 27.5911 67.6975 27.6711 67.6975 27.7511C67.6975 27.8711 67.5775 27.9911 67.3075 27.9911C65.8975 27.9911 64.3575 27.9111 64.2475 27.9111C63.8175 27.9111 62.5975 27.9911 61.8475 27.9911C61.5775 27.9911 61.4575 27.9511 61.4575 27.7511C61.4575 27.6711 61.6175 27.5911 61.7675 27.5911C61.9675 27.5911 62.1575 27.5911 62.3575 27.5511C62.8275 27.4711 62.9875 27.1611 63.0675 26.4911C63.1875 25.5111 63.1875 23.2711 63.1875 21.1911V17.1011H63.3075ZM65.4275 19.0311C65.4275 19.1511 65.4675 19.3011 65.5475 19.3411C65.8975 19.5411 66.9975 19.6911 67.9875 19.6911C68.5775 19.6911 69.2475 19.6511 69.8375 19.3011C70.6675 18.7911 71.2175 17.5711 71.2175 15.8011C71.2175 12.8111 69.6475 11.1611 67.1675 11.1611C66.4975 11.1611 65.9075 11.2011 65.5975 11.2811C65.5175 11.3211 65.4375 11.4011 65.4375 11.5211V19.0211L65.4275 19.0311Z" fill="white"></path><path d="M80.2384 17.102C80.2384 13.492 80.2384 12.822 80.1984 12.072C80.1584 11.322 79.9584 10.932 79.4084 10.812C79.1284 10.772 78.9384 10.772 78.7784 10.732C78.5784 10.692 78.4684 10.652 78.4684 10.532C78.4684 10.412 78.5884 10.332 78.8584 10.332C79.7184 10.332 81.2584 10.412 81.3384 10.412C81.4584 10.412 83.0284 10.332 83.8184 10.332C84.0884 10.332 84.2084 10.372 84.2084 10.532C84.2084 10.652 84.1284 10.692 83.8984 10.732C83.7384 10.772 83.5884 10.772 83.3884 10.772C82.5984 10.892 82.5284 11.282 82.4484 12.072C82.4084 12.822 82.4084 13.452 82.4084 17.062V21.192C82.4084 23.312 82.3684 25.242 82.5284 26.222C82.6484 27.012 82.7684 27.322 83.4684 27.482C83.8184 27.562 84.4084 27.602 84.5284 27.602C84.7684 27.642 84.8384 27.682 84.8384 27.802C84.8384 27.922 84.7184 28.002 84.4484 28.002C83.0384 28.002 81.4584 27.922 81.3084 27.922C81.2284 27.922 79.6184 28.002 78.8284 28.002C78.5884 28.002 78.3984 27.962 78.3984 27.802C78.3984 27.682 78.5184 27.602 78.7484 27.602C78.8684 27.602 79.1784 27.562 79.4184 27.522C79.8884 27.402 79.9684 26.852 80.0484 26.222C80.1684 25.242 80.1684 23.272 80.1684 21.232V17.102H80.2484H80.2384Z" fill="white"></path><path d="M89.9091 17.102C89.9091 13.522 89.9091 12.822 89.8691 12.072C89.8291 11.322 89.6291 10.932 88.8091 10.772C88.5691 10.732 88.2191 10.732 88.1391 10.732C87.8991 10.732 87.7891 10.652 87.7891 10.532C87.7891 10.412 87.9491 10.332 88.1791 10.332C89.3191 10.332 90.9691 10.412 91.0491 10.412C91.7191 10.412 92.6191 10.332 93.6791 10.332C97.8091 10.332 98.6291 12.612 98.6291 13.792C98.6291 15.832 97.4891 17.092 96.3091 17.992C98.1591 18.542 100.509 20.232 100.509 22.902C100.509 25.572 98.4691 28.012 94.2991 28.012C93.8691 28.012 93.3191 27.972 92.6091 27.972C91.8191 27.932 91.1991 27.892 91.0791 27.892C90.2191 27.892 89.5091 27.972 88.5991 27.972C88.3591 27.972 88.2091 27.932 88.2091 27.812C88.2091 27.732 88.2491 27.572 88.5991 27.572C88.7991 27.572 88.8691 27.572 89.1091 27.532C89.5791 27.452 89.7391 26.862 89.8191 26.232C89.9391 25.212 89.9391 23.362 89.9391 21.202V17.072H89.8991L89.9091 17.102ZM92.0291 17.572C92.0291 17.772 92.0691 17.812 92.1491 17.842C92.3091 17.882 92.6191 17.922 93.5291 17.922C94.9391 17.922 95.3391 17.842 95.8491 17.252C96.2791 16.742 96.5591 15.952 96.5591 15.052C96.5591 13.162 95.6991 11.042 93.3791 11.042C93.1391 11.042 92.5891 11.082 92.3191 11.162C92.0791 11.202 92.0091 11.282 92.0091 11.402V17.572H92.0491H92.0291ZM92.0291 19.932C92.0291 21.662 92.0291 24.682 92.0691 24.882C92.1491 26.102 92.1091 26.452 92.9291 26.812C93.5991 27.122 94.6991 27.162 94.9691 27.162C96.1491 27.162 98.1891 26.572 98.1891 24.062C98.1891 22.652 97.6791 20.562 95.8291 19.312C95.0091 18.802 94.5291 18.762 93.9791 18.722C93.5091 18.682 92.5691 18.682 92.1691 18.722C92.0891 18.722 92.0491 18.762 92.0491 18.882V19.942H92.0091L92.0291 19.932Z" fill="white"></path><path d="M106.25 20.3611C106.25 23.7011 106.88 25.1111 107.94 26.0611C109.12 27.1211 110.18 27.3211 111.28 27.3211C112.69 27.3211 113.99 26.9311 115.05 25.7511C116.15 24.4911 116.39 22.4111 116.39 20.0111V17.1011C116.39 13.5211 116.39 12.9011 116.35 12.1511C116.31 11.3611 116.23 10.9311 115.33 10.8111C115.13 10.7711 114.82 10.7711 114.54 10.7711C114.38 10.7711 114.27 10.6911 114.27 10.6111C114.27 10.4511 114.39 10.3711 114.66 10.3711C115.84 10.3711 117.21 10.4511 117.33 10.4511C117.45 10.4511 118.63 10.3711 119.41 10.3711C119.69 10.3711 119.8 10.4111 119.8 10.5711C119.8 10.6911 119.68 10.7711 119.52 10.7711C119.36 10.7711 119.28 10.7711 119.01 10.8111C118.22 10.8911 118.15 11.4011 118.07 12.1911C118.03 12.9411 118.03 13.5711 118.03 17.1411V19.5811C118.03 22.0611 117.75 25.0011 115.79 26.6911C114.02 28.1811 112.53 28.3411 111.04 28.3411C110.25 28.3411 107.7 28.3411 105.93 26.6911C104.75 25.5911 103.89 23.9411 103.89 20.5611V17.1411C103.89 13.5311 103.89 12.9011 103.81 12.1511C103.77 11.4011 103.65 10.9311 102.79 10.8511C102.63 10.8111 102.28 10.8111 102.08 10.8111C101.88 10.8111 101.77 10.7311 101.77 10.6511C101.77 10.4911 101.89 10.4111 102.16 10.4111C103.34 10.4111 104.83 10.4911 105.03 10.4911C105.27 10.4911 106.88 10.4111 107.62 10.4111C107.93 10.4111 108.01 10.4511 108.01 10.6111C108.01 10.7711 107.81 10.8111 107.7 10.8111C107.54 10.8111 107.31 10.8511 107.11 10.8511C106.44 10.9311 106.32 11.4011 106.28 12.1511C106.24 12.9011 106.24 13.5311 106.24 17.1411V20.3611H106.25Z" fill="white"></path><path d="M128.839 21.1913C128.839 23.3113 128.879 25.2413 128.959 26.2613C129.039 26.9313 129.079 27.3213 129.779 27.4813C130.089 27.5613 130.639 27.6012 130.839 27.6012C131.079 27.6012 131.149 27.6813 131.149 27.7613C131.149 27.8813 131.069 28.0013 130.799 28.0013C129.389 28.0013 127.769 27.9212 127.659 27.9212C127.549 27.9212 125.929 28.0013 125.219 28.0013C124.909 28.0013 124.829 27.9613 124.829 27.8013C124.829 27.7213 124.909 27.6012 125.139 27.6012C125.369 27.6012 125.529 27.6012 125.729 27.5612C126.239 27.4812 126.319 27.1713 126.439 26.2213C126.559 25.2413 126.559 23.2713 126.559 21.1913V11.4113C125.659 11.4113 124.749 11.4113 123.649 11.4513C121.879 11.4913 121.529 11.7613 121.139 12.3113C120.899 12.7013 120.789 13.0212 120.749 13.1712C120.669 13.3712 120.629 13.4113 120.509 13.4113C120.389 13.4113 120.389 13.2912 120.389 13.1712C120.349 13.0112 120.779 11.2113 120.939 10.4613C121.019 10.1513 121.099 10.0312 121.179 10.0312C121.379 10.0312 121.889 10.2713 122.399 10.3413C123.339 10.4613 124.129 10.4613 124.169 10.4613H132.069C132.859 10.4613 133.639 10.4213 134.029 10.3413C134.379 10.2613 134.459 10.2213 134.539 10.2213C134.659 10.2213 134.699 10.3413 134.699 10.4613C134.699 11.2513 134.659 13.0513 134.659 13.2513C134.659 13.4913 134.539 13.5613 134.459 13.5613C134.339 13.5613 134.259 13.4413 134.259 13.2513C134.259 13.1713 134.259 13.1313 134.219 12.8613C134.099 11.7613 133.749 11.4813 130.999 11.4513C129.939 11.4513 129.659 11.4113 128.879 11.4113V21.1913H128.839Z" fill="white"></path><path d="M138.229 17.1009C138.229 13.5209 138.229 12.8609 138.189 12.1109C138.149 11.3209 137.949 10.9709 137.129 10.8109C136.969 10.7709 136.699 10.7709 136.459 10.7709C136.259 10.7709 136.109 10.6909 136.109 10.6109C136.109 10.4509 136.229 10.3709 136.499 10.3709C137.049 10.3709 137.799 10.4109 139.329 10.4509C139.449 10.4509 144.359 10.4509 144.909 10.4109C145.459 10.3709 145.769 10.3709 145.969 10.2909C146.129 10.2509 146.169 10.2109 146.279 10.2109C146.319 10.2109 146.399 10.2509 146.399 10.4109C146.399 10.5709 146.239 10.9609 146.159 11.6309C146.119 12.1009 146.119 12.5309 146.079 13.0409C146.079 13.2809 146.039 13.4309 145.879 13.4309C145.759 13.4309 145.679 13.3109 145.679 13.1209C145.639 12.7309 145.559 12.4509 145.479 12.2609C145.319 11.7109 145.089 11.5109 143.709 11.4309C143.359 11.3909 140.649 11.3909 140.569 11.3909C140.489 11.3909 140.449 11.4309 140.449 11.6309V17.8409C140.449 18.0009 140.489 18.1109 140.609 18.1109C140.929 18.1109 143.749 18.0709 144.299 18.0309C144.929 17.9909 145.359 17.9109 145.559 17.6409C145.679 17.4809 145.759 17.4009 145.879 17.4009C145.919 17.4009 145.999 17.4409 145.999 17.5609C145.999 17.6809 145.879 18.2309 145.799 19.0109C145.719 19.8009 145.719 20.3109 145.679 20.7009C145.639 20.9409 145.599 21.0109 145.479 21.0109C145.359 21.0109 145.319 20.8509 145.319 20.6609C145.319 20.5009 145.279 20.2309 145.239 19.9909C145.119 19.6409 144.969 19.2409 143.939 19.1609C143.309 19.1209 141.069 19.0409 140.639 19.0409C140.479 19.0409 140.439 19.1209 140.439 19.2409V21.2409C140.439 22.1009 140.399 24.5009 140.439 24.9709C140.479 25.9909 140.639 26.5009 141.229 26.7409C141.619 26.9409 142.289 26.9809 143.229 26.9809C143.739 26.9809 144.639 27.0209 145.309 26.8209C146.129 26.5809 146.329 26.0309 146.529 25.0109C146.569 24.7409 146.649 24.6209 146.769 24.6209C146.929 24.6209 146.929 24.8609 146.929 25.0109C146.929 25.2109 146.689 26.9409 146.619 27.4109C146.499 27.9609 146.309 28.0009 145.399 28.0009C143.589 28.0009 142.809 27.9609 141.869 27.9609C140.929 27.9209 139.629 27.8809 138.649 27.8809C138.019 27.8809 137.509 27.9609 136.839 27.9609C136.599 27.9609 136.449 27.9209 136.449 27.7609C136.449 27.6409 136.569 27.5609 136.689 27.5609C136.849 27.5609 137.039 27.5209 137.239 27.4809C137.749 27.3609 138.059 27.0109 138.099 25.3209C138.139 24.3809 138.139 23.2809 138.139 21.1909V17.0609H138.219L138.229 17.1009Z" fill="white"></path><path d="M24.8086 22.6406V30.6906C24.8886 30.6506 35.2986 23.3006 39.4586 22.9106L24.8086 22.6406Z" fill="white"></path><path d="M19.1083 43.9816L18.0483 41.9816L8.69828 22.3416L5.86828 23.1316L5.58828 22.1516L3.46828 22.9016L2.99828 20.9416L15.9583 16.7416L29.9083 4.76156C27.0783 2.91156 23.8183 1.85156 20.3183 1.85156C9.62828 1.85156 0.988281 11.7516 0.988281 23.9716C0.988281 36.1916 8.99828 45.3416 19.1383 46.0516L19.0983 44.0116L19.1083 43.9816Z" fill="white"></path><path d="M38.5969 16.7525C37.4169 12.8225 35.2969 9.3625 32.5469 6.8125L20.7969 16.8325L38.5969 16.7525Z" fill="white"></path><path d="M24.8095 33.1709L24.7695 45.4709C33.0195 43.2309 39.2295 34.9809 39.6195 24.9609C33.4495 26.1809 27.8695 30.7409 24.8095 33.1709Z" fill="white"></path><path d="M16.2791 19.582L11.2891 21.192L18.9491 37.572L19.1091 41.302L19.0291 23.152L17.2191 23.192L16.2791 19.582Z" fill="white"></path><path d="M49.01 38.51C49.01 38.51 48.93 38.55 48.93 38.59L48.38 40.04C48.26 40.28 48.22 40.55 48.22 40.67C48.22 40.87 48.3 40.98 48.61 40.98H48.77C48.89 40.98 48.93 41.02 48.93 41.06C48.93 41.14 48.85 41.18 48.77 41.18C48.46 41.18 47.98 41.14 47.67 41.14C47.55 41.14 47 41.18 46.45 41.18C46.33 41.18 46.25 41.14 46.25 41.06C46.25 40.98 46.29 40.98 46.37 40.98C46.45 40.98 46.61 40.98 46.68 40.94C47.15 40.86 47.35 40.55 47.54 40.04L50.09 33.64C50.21 33.33 50.29 33.25 50.36 33.25C50.43 33.25 50.52 33.33 50.6 33.56C50.84 34.11 52.49 38.27 53.11 39.85C53.5 40.75 53.78 40.91 54.01 40.95C54.17 40.99 54.32 40.99 54.44 40.99C54.52 40.99 54.56 40.99 54.56 41.07C54.56 41.15 54.48 41.19 54.09 41.19C53.74 41.19 52.99 41.19 52.16 41.15C51.96 41.15 51.85 41.15 51.85 41.07C51.85 40.99 51.89 40.99 52.01 40.99C52.09 40.95 52.17 40.87 52.09 40.75L51.27 38.59C51.27 38.59 51.23 38.51 51.15 38.51H48.99H49.01ZM51.09 38C51.09 38 51.17 37.96 51.13 37.92L50.23 35.41L50.19 35.33C50.15 35.33 50.15 35.37 50.11 35.41L49.17 37.92C49.17 37.92 49.17 38 49.21 38H51.1H51.09Z" fill="white"></path><path d="M57.8466 34.0403L56.3166 34.0803C55.7266 34.1203 55.4866 34.1603 55.3366 34.3903C55.2166 34.5503 55.1766 34.6603 55.1766 34.7403C55.1366 34.8203 55.1366 34.8603 55.0566 34.8603C54.9766 34.8603 54.9766 34.8203 54.9766 34.7003C54.9766 34.5403 55.1766 33.6003 55.1766 33.5203C55.2166 33.4003 55.2566 33.3203 55.2966 33.3203C55.3766 33.3203 55.4966 33.4403 55.7266 33.4403C56.0366 33.4803 56.3966 33.4803 56.7466 33.4803H60.7966C61.1066 33.4803 61.3466 33.4403 61.5066 33.4403C61.6666 33.4003 61.7466 33.4003 61.7766 33.4003C61.8566 33.4003 61.8566 33.4803 61.8566 33.6003C61.8566 33.8003 61.8166 34.5003 61.8166 34.7803C61.8166 34.9003 61.7766 34.9403 61.7366 34.9403C61.6566 34.9403 61.6166 34.9003 61.6166 34.7403V34.6203C61.5766 34.3503 61.3066 34.0703 60.3966 34.0303H59.1366V38.2303C59.1366 39.1703 59.1366 39.9603 59.1766 40.4303C59.2166 40.7003 59.2566 40.9403 59.5666 40.9803C59.7266 41.0203 59.9166 41.0203 60.0766 41.0203C60.1966 41.0203 60.2366 41.0603 60.2366 41.1003C60.2366 41.1803 60.1566 41.2203 60.0366 41.2203C59.3666 41.2203 58.6966 41.1803 58.4266 41.1803C58.1866 41.1803 57.5666 41.2203 57.1266 41.2203C57.0066 41.2203 56.9266 41.1803 56.9266 41.1003C56.9266 41.0603 56.9666 41.0203 57.0866 41.0203C57.2466 41.0203 57.3566 40.9803 57.4366 40.9803C57.6366 40.9403 57.7066 40.7103 57.7466 40.4303C57.7866 40.0003 57.7866 39.2103 57.7866 38.2703V34.0303H57.8266L57.8466 34.0403Z" fill="white"></path><path d="M69.6372 36.3914C69.6372 34.8214 69.6372 34.5414 69.5972 34.2314C69.5572 33.8814 69.4772 33.7214 69.1672 33.6414C69.0872 33.6014 68.9272 33.6014 68.7772 33.6014C68.6572 33.6014 68.6172 33.5614 68.6172 33.5214C68.6172 33.4414 68.6972 33.4414 68.8572 33.4414C69.4072 33.4414 70.0372 33.4814 70.2372 33.4814C70.7472 33.4814 71.1372 33.4414 71.4972 33.4414C73.3472 33.4414 73.6572 34.4214 73.6572 34.9714C73.6572 35.7914 73.1872 36.3114 72.5972 36.7414C73.4172 37.0114 74.4472 37.7614 74.4472 38.9414C74.4472 40.0414 73.5872 41.1814 71.7372 41.1814C71.6172 41.1814 71.3072 41.1414 71.0272 41.1414C70.7172 41.1014 70.3972 41.1014 70.2372 41.1014H69.6472C69.4072 41.1014 69.1372 41.1414 68.9372 41.1414C68.8172 41.1414 68.7372 41.1014 68.7372 41.0214C68.7372 40.9814 68.7772 40.9414 68.8972 40.9414C69.0572 40.9414 69.1672 40.9014 69.2472 40.9014C69.4472 40.8614 69.5172 40.6214 69.5572 40.3514C69.5972 39.9214 69.5972 39.1314 69.5972 38.1914V36.3814H69.6372V36.3914ZM70.8472 36.5914C70.8472 36.6714 70.8872 36.7114 70.9272 36.7114C71.0072 36.7514 71.1672 36.7514 71.3972 36.7514C71.7472 36.7514 71.9472 36.7114 72.1472 36.5514C72.4272 36.3514 72.5772 35.9614 72.5772 35.4514C72.5772 34.7814 72.1872 33.8814 71.3172 33.8814C71.1572 33.8814 71.0772 33.8814 70.9672 33.9214C70.8872 33.9614 70.8872 34.0014 70.8872 34.0814V36.5914H70.8472ZM72.1872 37.4114C71.9872 37.2514 71.7572 37.1714 71.3272 37.1714H70.8972C70.8972 37.1714 70.8172 37.2114 70.8172 37.2514V39.6914C70.8172 40.3614 70.8572 40.5514 71.1672 40.6714C71.4472 40.7914 71.6772 40.7914 71.9172 40.7914C72.3872 40.7914 73.1372 40.5514 73.1372 39.4914C73.1772 38.7814 72.9772 37.9214 72.1972 37.4114H72.1872Z" fill="white"></path><path d="M79.2988 38.2014C79.2988 39.5014 79.2987 40.2014 79.4987 40.4014C79.6587 40.5614 79.9287 40.6414 80.7188 40.6414C81.2688 40.6414 81.6588 40.6414 81.8988 40.3714C82.0188 40.2514 82.1387 39.9414 82.1687 39.7414C82.1687 39.6614 82.2087 39.5814 82.2887 39.5814C82.3687 39.5814 82.3688 39.6214 82.3688 39.7414C82.3688 39.8614 82.2887 40.6014 82.2087 40.9214C82.1287 41.1614 82.0888 41.1914 81.5788 41.1914C80.8288 41.1914 80.3187 41.1514 79.8487 41.1514C79.3787 41.1114 79.0187 41.1114 78.5887 41.1114H77.9987C77.7587 41.1114 77.4887 41.1514 77.2887 41.1514C77.1687 41.1514 77.0887 41.1114 77.0887 41.0314C77.0887 40.9914 77.1287 40.9514 77.2487 40.9514C77.4087 40.9514 77.5187 40.9114 77.5987 40.9114C77.7987 40.8714 77.8688 40.6314 77.9088 40.3614C77.9488 39.9314 77.9487 39.1414 77.9487 38.2014V36.3914C77.9487 34.8214 77.9488 34.5414 77.9088 34.2314C77.8688 33.8814 77.7888 33.7214 77.4788 33.6414C77.3988 33.6014 77.2787 33.6014 77.1287 33.6014C77.0087 33.6014 76.9688 33.5614 76.9688 33.5214C76.9688 33.4414 77.0487 33.4414 77.2087 33.4414C77.6787 33.4414 78.3488 33.4814 78.6188 33.4814C78.8588 33.4814 79.5987 33.4414 79.9987 33.4414C80.1587 33.4414 80.1987 33.4814 80.1987 33.5214C80.1987 33.6014 80.1187 33.6014 79.9987 33.6014C79.8787 33.6014 79.7287 33.6014 79.6087 33.6414C79.3287 33.6814 79.2587 33.8814 79.2188 34.2314C79.1788 34.5414 79.1787 34.8614 79.1787 36.3914V38.2014H79.2988Z" fill="white"></path><path d="M86.2092 38.51C86.2092 38.51 86.1292 38.55 86.1292 38.59L85.5792 40.04C85.4592 40.28 85.4192 40.55 85.4192 40.67C85.4192 40.87 85.4992 40.98 85.8092 40.98H85.9692C86.0892 40.98 86.1292 41.02 86.1292 41.06C86.1292 41.14 86.0492 41.18 85.9692 41.18C85.6592 41.18 85.1792 41.14 84.8692 41.14C84.7492 41.14 84.1992 41.18 83.6492 41.18C83.5292 41.18 83.4492 41.14 83.4492 41.06C83.4492 40.98 83.4892 40.98 83.5692 40.98C83.6492 40.98 83.8092 40.98 83.8792 40.94C84.3492 40.86 84.5492 40.55 84.7392 40.04L87.2892 33.64C87.4092 33.33 87.4892 33.25 87.5592 33.25C87.6292 33.25 87.7192 33.33 87.8292 33.56C88.0692 34.11 89.7192 38.27 90.3392 39.85C90.7292 40.75 91.0092 40.91 91.2392 40.95C91.3992 40.99 91.5492 40.99 91.6692 40.99C91.7492 40.99 91.7892 40.99 91.7892 41.07C91.7892 41.15 91.7092 41.19 91.3192 41.19C90.9692 41.19 90.2192 41.19 89.3892 41.15C89.1892 41.15 89.0792 41.15 89.0792 41.07C89.0792 40.99 89.1192 40.99 89.2392 40.99C89.3192 40.95 89.3992 40.87 89.3192 40.75L88.4892 38.59C88.4892 38.59 88.4492 38.51 88.3692 38.51H86.1692H86.2092ZM88.2992 38C88.2992 38 88.3792 37.96 88.3392 37.92L87.4392 35.41L87.3992 35.33C87.3992 35.33 87.3592 35.37 87.3192 35.41L86.3792 37.92C86.3792 37.92 86.3792 38 86.4192 38H88.3092H88.2992Z" fill="white"></path><path d="M94.4983 40.2012C93.5183 39.3412 93.2383 38.2012 93.2383 37.1712C93.2383 36.4612 93.4383 35.2812 94.4183 34.3812C95.1683 33.7112 96.1083 33.2812 97.6383 33.2812C98.2683 33.2812 98.6583 33.3213 99.1283 33.4013C99.5183 33.4413 99.8383 33.5612 100.148 33.5612C100.268 33.5612 100.308 33.6413 100.308 33.6813C100.308 33.7613 100.268 33.8813 100.268 34.2313C100.228 34.5813 100.268 35.1313 100.228 35.3313C100.228 35.4913 100.188 35.5713 100.108 35.5713C100.028 35.5713 99.9883 35.4913 99.9883 35.3313C99.9883 35.0213 99.8283 34.6613 99.5983 34.3913C99.2483 34.0413 98.4583 33.7613 97.5183 33.7613C96.5783 33.7613 96.0683 34.0013 95.5883 34.3913C94.8383 35.0613 94.6483 36.0412 94.6483 37.0212C94.6483 39.4612 96.4983 40.6712 97.8683 40.6712C98.7683 40.6712 99.3183 40.5513 99.7583 40.0813C99.9183 39.8813 100.068 39.6113 100.108 39.4113C100.148 39.2513 100.148 39.2113 100.228 39.2113C100.308 39.2113 100.308 39.2913 100.308 39.3713C100.308 39.4913 100.188 40.3913 100.068 40.7513C100.028 40.9113 99.9883 40.9912 99.7983 41.0612C99.4083 41.2212 98.6183 41.3013 97.9483 41.3013C96.6083 41.3013 95.4383 40.9912 94.4883 40.2012H94.4983Z" fill="white"></path><path d="M105.189 36.8597H105.229C105.579 36.4697 107.079 34.9697 107.349 34.6197C107.619 34.2697 107.859 34.0297 107.859 33.8297C107.859 33.7097 107.819 33.6297 107.699 33.6297C107.619 33.5897 107.579 33.5897 107.579 33.5097C107.579 33.4297 107.619 33.4297 107.739 33.4297C107.939 33.4297 108.529 33.4697 108.799 33.4697C109.109 33.4697 109.659 33.4297 109.979 33.4297C110.099 33.4297 110.139 33.4697 110.139 33.5097C110.139 33.5897 110.099 33.5897 109.979 33.5897C109.819 33.5897 109.589 33.6297 109.389 33.7097C109.079 33.8297 108.719 34.0597 108.289 34.4997C107.979 34.8097 106.439 36.3497 106.089 36.6997C106.439 37.1697 108.449 39.3297 108.839 39.7297C109.269 40.1597 109.739 40.6297 110.289 40.8297C110.599 40.9497 110.799 40.9897 110.919 40.9897C110.999 40.9897 111.039 41.0297 111.039 41.0697C111.039 41.1497 110.999 41.1897 110.799 41.1897H109.899C109.589 41.1897 109.429 41.1897 109.189 41.1497C108.639 41.1097 108.359 40.8797 107.929 40.4797C107.499 40.0897 105.449 37.7297 105.259 37.4197L105.139 37.2597H105.099V38.1997C105.099 39.1397 105.099 39.9297 105.139 40.3997C105.179 40.6797 105.259 40.9097 105.489 40.9497C105.649 40.9897 105.839 40.9897 105.999 40.9897C106.079 40.9897 106.119 41.0297 106.119 41.0697C106.119 41.1497 106.039 41.1897 105.919 41.1897C105.329 41.1897 104.699 41.1497 104.469 41.1497C104.239 41.1497 103.609 41.1897 103.169 41.1897C103.049 41.1897 102.969 41.1497 102.969 41.0697C102.969 41.0297 103.009 40.9897 103.129 40.9897C103.289 40.9897 103.399 40.9497 103.479 40.9497C103.679 40.9097 103.749 40.6797 103.789 40.3997C103.829 39.9697 103.829 39.1797 103.829 38.2397V36.3897C103.829 34.8197 103.829 34.5397 103.789 34.2297C103.749 33.8797 103.669 33.7197 103.359 33.6397C103.279 33.5997 103.119 33.5997 102.969 33.5997C102.849 33.5997 102.809 33.5597 102.809 33.5197C102.809 33.4397 102.889 33.4397 103.049 33.4397C103.599 33.4397 104.229 33.4797 104.459 33.4797C104.689 33.4797 105.359 33.4397 105.679 33.4397C105.839 33.4397 105.879 33.4797 105.879 33.5197C105.879 33.5997 105.799 33.5997 105.719 33.5997C105.599 33.5997 105.559 33.5997 105.439 33.6397C105.169 33.6797 105.089 33.8797 105.049 34.2297C105.009 34.5397 105.009 34.8597 105.009 36.3897V36.8597H105.169H105.189Z" fill="white"></path><path d="M122.868 36.7114C122.868 36.7114 122.948 36.6714 122.948 36.6314V36.3914C122.948 34.8214 122.948 34.5414 122.908 34.2314C122.868 33.8814 122.788 33.7214 122.478 33.6414C122.398 33.6014 122.208 33.6014 122.088 33.6014C121.968 33.6014 121.928 33.5614 121.928 33.5214C121.928 33.4414 122.008 33.4414 122.128 33.4414C122.678 33.4414 123.308 33.4814 123.578 33.4814C123.818 33.4814 124.478 33.4414 124.878 33.4414C125.038 33.4414 125.078 33.4814 125.078 33.5214C125.078 33.6014 124.998 33.6014 124.878 33.6014C124.798 33.6014 124.718 33.6014 124.568 33.6414C124.288 33.6814 124.218 33.8814 124.178 34.2314C124.138 34.5414 124.138 34.8614 124.138 36.3914V38.2014C124.138 39.1414 124.138 39.9314 124.178 40.4014C124.218 40.6814 124.258 40.9114 124.568 40.9514C124.728 40.9914 124.918 40.9914 125.078 40.9914C125.198 40.9914 125.238 41.0314 125.238 41.0714C125.238 41.1514 125.158 41.1914 125.038 41.1914C124.368 41.1914 123.738 41.1514 123.428 41.1514C123.188 41.1514 122.568 41.1914 122.168 41.1914C122.008 41.1914 121.968 41.1514 121.968 41.0714C121.968 41.0314 122.008 40.9914 122.128 40.9914C122.288 40.9914 122.398 40.9514 122.478 40.9514C122.678 40.9114 122.718 40.6814 122.798 40.4014C122.838 39.9714 122.838 39.1814 122.838 38.2414V37.3414C122.838 37.3414 122.798 37.2614 122.758 37.2614H118.868C118.868 37.2614 118.788 37.2614 118.788 37.3414V38.2414C118.788 39.1814 118.788 39.9714 118.828 40.4414C118.868 40.7114 118.908 40.9514 119.218 40.9914C119.378 41.0314 119.568 41.0314 119.728 41.0314C119.848 41.0314 119.888 41.0714 119.888 41.1114C119.888 41.1914 119.808 41.2314 119.688 41.2314C119.018 41.2314 118.388 41.1914 118.078 41.1914C117.838 41.1914 117.218 41.2314 116.778 41.2314C116.658 41.2314 116.578 41.1914 116.578 41.1114C116.578 41.0714 116.618 41.0314 116.738 41.0314C116.898 41.0314 117.018 40.9914 117.088 40.9914C117.288 40.9514 117.358 40.7214 117.398 40.4414C117.438 40.0114 117.438 39.2214 117.438 38.2814V36.3914C117.438 34.8214 117.438 34.5414 117.398 34.2314C117.358 33.8814 117.278 33.7214 116.968 33.6414C116.888 33.6014 116.728 33.6014 116.578 33.6014C116.458 33.6014 116.418 33.5614 116.418 33.5214C116.418 33.4414 116.498 33.4414 116.618 33.4414C117.168 33.4414 117.798 33.4814 118.068 33.4814C118.308 33.4814 118.968 33.4414 119.368 33.4414C119.528 33.4414 119.568 33.4814 119.568 33.5214C119.568 33.6014 119.488 33.6014 119.368 33.6014C119.288 33.6014 119.208 33.6014 119.058 33.6414C118.778 33.6814 118.708 33.8814 118.668 34.2314C118.628 34.5414 118.628 34.8614 118.628 36.3914V36.5914C118.628 36.5914 118.668 36.6714 118.708 36.6714H122.878V36.7114H122.868Z" fill="white"></path><path d="M128.957 36.3923C128.957 34.8223 128.957 34.5423 128.917 34.2323C128.877 33.8823 128.797 33.7223 128.567 33.6423C128.447 33.6023 128.327 33.6023 128.217 33.6023C128.107 33.6023 128.057 33.5623 128.057 33.4823C128.057 33.4023 128.137 33.4023 128.297 33.4023C128.687 33.4023 129.317 33.4423 129.637 33.4423C129.877 33.4423 130.497 33.4023 130.897 33.4023C131.017 33.4023 131.097 33.4423 131.097 33.4823C131.097 33.5623 131.017 33.6023 130.937 33.6023C130.857 33.6023 130.737 33.6023 130.617 33.6423C130.347 33.6823 130.267 33.8823 130.227 34.2323C130.187 34.5423 130.187 34.8623 130.187 36.3923V38.2023C130.187 39.1823 130.187 40.0123 130.227 40.4423C130.267 40.7123 130.347 40.9123 130.617 40.9523C130.777 40.9923 130.967 40.9923 131.127 40.9923C131.247 40.9923 131.287 41.0323 131.287 41.0723C131.287 41.1523 131.207 41.1923 131.087 41.1923C130.417 41.1923 129.747 41.1523 129.477 41.1523C129.237 41.1523 128.617 41.1923 128.177 41.1923C128.057 41.1923 127.977 41.1523 127.977 41.0723C127.977 41.0323 128.017 40.9923 128.137 40.9923C128.297 40.9923 128.417 40.9523 128.487 40.9523C128.687 40.9123 128.757 40.7523 128.797 40.4423C128.837 40.0123 128.837 39.2223 128.837 38.2023V36.3923H128.957Z" fill="white"></path><path d="M136.268 38.2014C136.268 39.5014 136.267 40.2014 136.467 40.4014C136.627 40.5614 136.897 40.6414 137.688 40.6414C138.238 40.6414 138.627 40.6414 138.867 40.3714C138.987 40.2514 139.107 39.9414 139.137 39.7414C139.137 39.6614 139.177 39.5814 139.257 39.5814C139.337 39.5814 139.337 39.6214 139.337 39.7414C139.337 39.8614 139.257 40.6014 139.177 40.9214C139.097 41.1614 139.058 41.1914 138.548 41.1914C137.798 41.1914 137.288 41.1514 136.818 41.1514C136.348 41.1114 135.997 41.1114 135.557 41.1114H134.967C134.727 41.1114 134.457 41.1514 134.257 41.1514C134.137 41.1514 134.057 41.1114 134.057 41.0314C134.057 40.9914 134.097 40.9514 134.217 40.9514C134.377 40.9514 134.498 40.9114 134.568 40.9114C134.768 40.8714 134.838 40.6314 134.878 40.3614C134.918 39.9314 134.917 39.1414 134.917 38.2014V36.3914C134.917 34.8214 134.918 34.5414 134.878 34.2314C134.838 33.8814 134.757 33.7214 134.447 33.6414C134.367 33.6014 134.248 33.6014 134.098 33.6014C133.978 33.6014 133.938 33.5614 133.938 33.5214C133.938 33.4414 134.017 33.4414 134.177 33.4414C134.647 33.4414 135.318 33.4814 135.598 33.4814C135.838 33.4814 136.577 33.4414 136.967 33.4414C137.127 33.4414 137.167 33.4814 137.167 33.5214C137.167 33.6014 137.087 33.6014 136.967 33.6014C136.847 33.6014 136.687 33.6014 136.577 33.6414C136.297 33.6814 136.227 33.8814 136.188 34.2314C136.148 34.5414 136.147 34.8614 136.147 36.3914V38.2014H136.268Z" fill="white"></path><path d="M143.847 38.2014C143.847 39.5014 143.847 40.2014 144.047 40.4014C144.207 40.5614 144.477 40.6414 145.267 40.6414C145.817 40.6414 146.207 40.6414 146.447 40.3714C146.567 40.2514 146.687 39.9414 146.727 39.7414C146.727 39.6614 146.767 39.5814 146.847 39.5814C146.927 39.5814 146.927 39.6214 146.927 39.7414C146.927 39.8614 146.847 40.6014 146.767 40.9214C146.687 41.1614 146.647 41.1914 146.137 41.1914C145.387 41.1914 144.877 41.1514 144.407 41.1514C143.937 41.1114 143.587 41.1114 143.147 41.1114H142.557C142.317 41.1114 142.047 41.1514 141.847 41.1514C141.727 41.1514 141.647 41.1114 141.647 41.0314C141.647 40.9914 141.687 40.9514 141.807 40.9514C141.967 40.9514 142.087 40.9114 142.157 40.9114C142.357 40.8714 142.437 40.6314 142.467 40.3614C142.507 39.9314 142.507 39.1414 142.507 38.2014V36.3914C142.507 34.8214 142.507 34.5414 142.467 34.2314C142.427 33.8814 142.347 33.7214 142.037 33.6414C141.957 33.6014 141.837 33.6014 141.687 33.6014C141.567 33.6014 141.527 33.5614 141.527 33.5214C141.527 33.4414 141.607 33.4414 141.767 33.4414C142.237 33.4414 142.907 33.4814 143.177 33.4814C143.417 33.4814 144.157 33.4414 144.557 33.4414C144.717 33.4414 144.757 33.4814 144.757 33.5214C144.757 33.6014 144.677 33.6014 144.557 33.6014C144.437 33.6014 144.277 33.6014 144.167 33.6414C143.897 33.6814 143.817 33.8814 143.777 34.2314C143.737 34.5414 143.737 34.8614 143.737 36.3914V38.2014H143.857H143.847Z" fill="white"></path></g><defs><clipPath id="clip0_8080_2281"><rect width="252" height="50" fill="white"></rect></clipPath></defs></svg> 